<mxfile host="app.diagrams.net" modified="2024-07-10T20:26:17.102Z" agent="Mozilla/5.0 (X11; Linux x86_64; rv:121.0) Gecko/20100101 Firefox/121.0" etag="N6iaWPQqm7Q0AMHLJxwp" version="24.6.4" type="github">
  <diagram name="Page-1" id="HjrY9pbX0RqxJzZfA0Nr">
    <mxGraphModel dx="683" dy="1015" grid="1" gridSize="10" guides="1" tooltips="1" connect="1" arrows="1" fold="1" page="1" pageScale="1" pageWidth="850" pageHeight="1100" math="0" shadow="0">
      <root>
        <mxCell id="0" />
        <mxCell id="1" parent="0" />
        <mxCell id="Hm6M_lOi0KgkeEvIUl10-16" value="" style="edgeStyle=orthogonalEdgeStyle;rounded=0;orthogonalLoop=1;jettySize=auto;html=1;" edge="1" parent="1" source="Hm6M_lOi0KgkeEvIUl10-1" target="Hm6M_lOi0KgkeEvIUl10-15">
          <mxGeometry relative="1" as="geometry" />
        </mxCell>
        <mxCell id="Hm6M_lOi0KgkeEvIUl10-1" value="Emulator Layer" style="rounded=0;whiteSpace=wrap;html=1;" vertex="1" parent="1">
          <mxGeometry x="30" y="190" width="120" height="60" as="geometry" />
        </mxCell>
        <mxCell id="Hm6M_lOi0KgkeEvIUl10-18" value="" style="edgeStyle=orthogonalEdgeStyle;rounded=0;orthogonalLoop=1;jettySize=auto;html=1;" edge="1" parent="1" source="Hm6M_lOi0KgkeEvIUl10-2" target="Hm6M_lOi0KgkeEvIUl10-17">
          <mxGeometry relative="1" as="geometry" />
        </mxCell>
        <mxCell id="Hm6M_lOi0KgkeEvIUl10-2" value="ROM Layer" style="rounded=0;whiteSpace=wrap;html=1;" vertex="1" parent="1">
          <mxGeometry x="30" y="270" width="120" height="60" as="geometry" />
        </mxCell>
        <mxCell id="Hm6M_lOi0KgkeEvIUl10-12" value="" style="edgeStyle=orthogonalEdgeStyle;rounded=0;orthogonalLoop=1;jettySize=auto;html=1;" edge="1" parent="1" source="Hm6M_lOi0KgkeEvIUl10-7" target="Hm6M_lOi0KgkeEvIUl10-11">
          <mxGeometry relative="1" as="geometry" />
        </mxCell>
        <mxCell id="Hm6M_lOi0KgkeEvIUl10-7" value="High-level API" style="rounded=0;whiteSpace=wrap;html=1;" vertex="1" parent="1">
          <mxGeometry x="30" y="30" width="120" height="60" as="geometry" />
        </mxCell>
        <mxCell id="Hm6M_lOi0KgkeEvIUl10-14" value="" style="edgeStyle=orthogonalEdgeStyle;rounded=0;orthogonalLoop=1;jettySize=auto;html=1;" edge="1" parent="1" source="Hm6M_lOi0KgkeEvIUl10-8" target="Hm6M_lOi0KgkeEvIUl10-13">
          <mxGeometry relative="1" as="geometry" />
        </mxCell>
        <mxCell id="Hm6M_lOi0KgkeEvIUl10-8" value="ML Layer" style="rounded=0;whiteSpace=wrap;html=1;" vertex="1" parent="1">
          <mxGeometry x="30" y="110" width="120" height="60" as="geometry" />
        </mxCell>
        <mxCell id="Hm6M_lOi0KgkeEvIUl10-11" value="Integrates everything together by setting up communication channels b/t layers" style="whiteSpace=wrap;html=1;rounded=0;" vertex="1" parent="1">
          <mxGeometry x="230" y="30" width="120" height="60" as="geometry" />
        </mxCell>
        <mxCell id="Hm6M_lOi0KgkeEvIUl10-13" value="RL agent that can receive data from ROM layer and control emulator layer" style="whiteSpace=wrap;html=1;rounded=0;" vertex="1" parent="1">
          <mxGeometry x="230" y="110" width="120" height="60" as="geometry" />
        </mxCell>
        <mxCell id="Hm6M_lOi0KgkeEvIUl10-15" value="Interface for controlling the player character" style="whiteSpace=wrap;html=1;rounded=0;" vertex="1" parent="1">
          <mxGeometry x="230" y="190" width="120" height="60" as="geometry" />
        </mxCell>
        <mxCell id="Hm6M_lOi0KgkeEvIUl10-17" value="Contains data in memory which will be read by the scripting layer" style="whiteSpace=wrap;html=1;rounded=0;" vertex="1" parent="1">
          <mxGeometry x="230" y="270" width="120" height="60" as="geometry" />
        </mxCell>
      </root>
    </mxGraphModel>
  </diagram>
</mxfile>
